<mxfile host="Electron" modified="2022-01-30T06:32:00.782Z" agent="5.0 (X11; Linux x86_64) AppleWebKit/537.36 (KHTML, like Gecko) draw.io/16.0.0 Chrome/91.0.4472.164 Electron/13.6.3 Safari/537.36" etag="ym9nzKq6jH3d4415nju-" compressed="false" version="16.0.0" type="device">
  <diagram id="R2lEEEUBdFMjLlhIrx00" name="Page-1">
    <mxGraphModel dx="868" dy="1661" grid="1" gridSize="10" guides="1" tooltips="1" connect="1" arrows="1" fold="1" page="1" pageScale="1" pageWidth="850" pageHeight="1100" math="0" shadow="0" extFonts="Permanent Marker^https://fonts.googleapis.com/css?family=Permanent+Marker">
      <root>
        <mxCell id="0" />
        <mxCell id="1" parent="0" />
        <mxCell id="sVlaK4R8TNGXsEOWWM8I-3" value="&lt;div&gt;فرد (کاربر)&lt;/div&gt;" style="rounded=1;arcSize=10;whiteSpace=wrap;html=1;align=center;" parent="1" vertex="1">
          <mxGeometry x="350" y="110" width="135" height="50" as="geometry" />
        </mxCell>
        <mxCell id="sVlaK4R8TNGXsEOWWM8I-7" value="" style="endArrow=none;html=1;rounded=0;exitX=1.002;exitY=0.083;exitDx=0;exitDy=0;entryX=0.5;entryY=1;entryDx=0;entryDy=0;exitPerimeter=0;" parent="1" source="sVlaK4R8TNGXsEOWWM8I-3" target="sVlaK4R8TNGXsEOWWM8I-8" edge="1">
          <mxGeometry relative="1" as="geometry">
            <mxPoint x="310" y="140" as="sourcePoint" />
            <mxPoint x="440" y="120" as="targetPoint" />
          </mxGeometry>
        </mxCell>
        <mxCell id="sVlaK4R8TNGXsEOWWM8I-8" value="&lt;div&gt;جنسیت&lt;/div&gt;" style="ellipse;whiteSpace=wrap;html=1;align=center;" parent="1" vertex="1">
          <mxGeometry x="540" y="-50" width="52.02" height="40" as="geometry" />
        </mxCell>
        <mxCell id="sVlaK4R8TNGXsEOWWM8I-9" value="" style="endArrow=none;html=1;rounded=0;exitX=0.75;exitY=0;exitDx=0;exitDy=0;entryX=0.5;entryY=1;entryDx=0;entryDy=0;" parent="1" source="sVlaK4R8TNGXsEOWWM8I-3" target="sVlaK4R8TNGXsEOWWM8I-10" edge="1">
          <mxGeometry relative="1" as="geometry">
            <mxPoint x="437.995" y="109.99999999999999" as="sourcePoint" />
            <mxPoint x="364.98" y="121.92" as="targetPoint" />
          </mxGeometry>
        </mxCell>
        <mxCell id="sVlaK4R8TNGXsEOWWM8I-10" value="&lt;div&gt;محل زندگی&lt;/div&gt;" style="ellipse;whiteSpace=wrap;html=1;align=center;" parent="1" vertex="1">
          <mxGeometry x="435.02" y="30" width="84.98" height="40" as="geometry" />
        </mxCell>
        <mxCell id="sVlaK4R8TNGXsEOWWM8I-11" value="" style="endArrow=none;html=1;rounded=0;entryX=0.334;entryY=0.021;entryDx=0;entryDy=0;exitX=0.5;exitY=1;exitDx=0;exitDy=0;entryPerimeter=0;" parent="1" source="sVlaK4R8TNGXsEOWWM8I-14" target="sVlaK4R8TNGXsEOWWM8I-10" edge="1">
          <mxGeometry relative="1" as="geometry">
            <mxPoint x="410" y="-50" as="sourcePoint" />
            <mxPoint x="470" y="40" as="targetPoint" />
          </mxGeometry>
        </mxCell>
        <mxCell id="sVlaK4R8TNGXsEOWWM8I-12" value="" style="endArrow=none;html=1;rounded=0;entryX=1;entryY=0;entryDx=0;entryDy=0;exitX=0.5;exitY=1;exitDx=0;exitDy=0;" parent="1" source="sVlaK4R8TNGXsEOWWM8I-13" target="sVlaK4R8TNGXsEOWWM8I-10" edge="1">
          <mxGeometry relative="1" as="geometry">
            <mxPoint x="510" y="-50" as="sourcePoint" />
            <mxPoint x="442.4836613280247" y="45.83970534580931" as="targetPoint" />
          </mxGeometry>
        </mxCell>
        <mxCell id="sVlaK4R8TNGXsEOWWM8I-13" value="&lt;div&gt;شهر&lt;/div&gt;" style="ellipse;whiteSpace=wrap;html=1;align=center;" parent="1" vertex="1">
          <mxGeometry x="503.75" y="-30" width="36.25" height="40" as="geometry" />
        </mxCell>
        <mxCell id="sVlaK4R8TNGXsEOWWM8I-14" value="کشور" style="ellipse;whiteSpace=wrap;html=1;align=center;" parent="1" vertex="1">
          <mxGeometry x="450" y="-30" width="50" height="40" as="geometry" />
        </mxCell>
        <mxCell id="sVlaK4R8TNGXsEOWWM8I-15" value="" style="endArrow=none;html=1;rounded=0;entryX=0.5;entryY=0;entryDx=0;entryDy=0;exitX=0.5;exitY=1;exitDx=0;exitDy=0;" parent="1" source="sVlaK4R8TNGXsEOWWM8I-16" target="sVlaK4R8TNGXsEOWWM8I-3" edge="1">
          <mxGeometry relative="1" as="geometry">
            <mxPoint x="380" y="50" as="sourcePoint" />
            <mxPoint x="470" y="40" as="targetPoint" />
          </mxGeometry>
        </mxCell>
        <mxCell id="sVlaK4R8TNGXsEOWWM8I-16" value="تاریخ تولد" style="ellipse;whiteSpace=wrap;html=1;align=center;" parent="1" vertex="1">
          <mxGeometry x="350" y="30" width="55" height="40" as="geometry" />
        </mxCell>
        <mxCell id="sVlaK4R8TNGXsEOWWM8I-18" value="مزاج" style="ellipse;whiteSpace=wrap;html=1;align=center;" parent="1" vertex="1">
          <mxGeometry x="270" y="-40" width="50" height="40" as="geometry" />
        </mxCell>
        <mxCell id="sVlaK4R8TNGXsEOWWM8I-20" value="" style="endArrow=none;html=1;rounded=0;exitX=0.5;exitY=1;exitDx=0;exitDy=0;entryX=0.25;entryY=0;entryDx=0;entryDy=0;" parent="1" source="sVlaK4R8TNGXsEOWWM8I-18" target="sVlaK4R8TNGXsEOWWM8I-3" edge="1">
          <mxGeometry relative="1" as="geometry">
            <mxPoint x="310" y="40" as="sourcePoint" />
            <mxPoint x="470" y="40" as="targetPoint" />
          </mxGeometry>
        </mxCell>
        <mxCell id="sVlaK4R8TNGXsEOWWM8I-24" value="U" style="endArrow=none;html=1;rounded=0;entryX=0;entryY=1;entryDx=0;entryDy=0;exitX=1;exitY=0;exitDx=0;exitDy=0;" parent="1" source="sVlaK4R8TNGXsEOWWM8I-25" target="sVlaK4R8TNGXsEOWWM8I-3" edge="1">
          <mxGeometry width="50" height="50" relative="1" as="geometry">
            <mxPoint x="350" y="280" as="sourcePoint" />
            <mxPoint x="382.5" y="200" as="targetPoint" />
          </mxGeometry>
        </mxCell>
        <mxCell id="sVlaK4R8TNGXsEOWWM8I-25" value="&lt;div&gt;متخصص&lt;/div&gt;" style="rounded=1;arcSize=10;whiteSpace=wrap;html=1;align=center;" parent="1" vertex="1">
          <mxGeometry x="115.63" y="230" width="78.75" height="50" as="geometry" />
        </mxCell>
        <mxCell id="sVlaK4R8TNGXsEOWWM8I-28" value="" style="endArrow=none;html=1;rounded=0;exitX=0;exitY=0.5;exitDx=0;exitDy=0;entryX=1;entryY=0.5;entryDx=0;entryDy=0;" parent="1" source="sVlaK4R8TNGXsEOWWM8I-153" target="sVlaK4R8TNGXsEOWWM8I-29" edge="1">
          <mxGeometry relative="1" as="geometry">
            <mxPoint x="105.38853679904332" y="155.79036130704844" as="sourcePoint" />
            <mxPoint x="49.73000000000002" y="270" as="targetPoint" />
          </mxGeometry>
        </mxCell>
        <mxCell id="sVlaK4R8TNGXsEOWWM8I-29" value="&lt;div&gt;درجه تخصص&lt;/div&gt;" style="ellipse;whiteSpace=wrap;html=1;align=center;" parent="1" vertex="1">
          <mxGeometry x="24.25" y="140" width="60" height="40" as="geometry" />
        </mxCell>
        <mxCell id="sVlaK4R8TNGXsEOWWM8I-36" value="&lt;div&gt;بیماری&lt;/div&gt;" style="rounded=1;arcSize=10;whiteSpace=wrap;html=1;align=center;" parent="1" vertex="1">
          <mxGeometry x="750" y="110" width="135" height="50" as="geometry" />
        </mxCell>
        <mxCell id="sVlaK4R8TNGXsEOWWM8I-37" value="درمان" style="rounded=1;arcSize=10;whiteSpace=wrap;html=1;align=center;" parent="1" vertex="1">
          <mxGeometry x="396.25" y="420" width="107.5" height="50" as="geometry" />
        </mxCell>
        <mxCell id="sVlaK4R8TNGXsEOWWM8I-38" value="آزمون" style="rounded=1;arcSize=10;whiteSpace=wrap;html=1;align=center;" parent="1" vertex="1">
          <mxGeometry x="108.13" y="410" width="93.75" height="50" as="geometry" />
        </mxCell>
        <mxCell id="sVlaK4R8TNGXsEOWWM8I-39" value="سابقه" style="shape=ext;margin=3;double=1;whiteSpace=wrap;html=1;align=center;" parent="1" vertex="1">
          <mxGeometry x="880" y="300" width="80" height="40" as="geometry" />
        </mxCell>
        <mxCell id="sVlaK4R8TNGXsEOWWM8I-41" value="" style="endArrow=none;html=1;rounded=0;exitX=0.5;exitY=0;exitDx=0;exitDy=0;entryX=0.5;entryY=1;entryDx=0;entryDy=0;" parent="1" source="sVlaK4R8TNGXsEOWWM8I-43" target="sVlaK4R8TNGXsEOWWM8I-42" edge="1">
          <mxGeometry relative="1" as="geometry">
            <mxPoint x="650" y="84.15000000000009" as="sourcePoint" />
            <mxPoint x="629.73" y="90" as="targetPoint" />
          </mxGeometry>
        </mxCell>
        <mxCell id="sVlaK4R8TNGXsEOWWM8I-42" value="&lt;div&gt;سطح&lt;/div&gt;" style="ellipse;whiteSpace=wrap;html=1;align=center;" parent="1" vertex="1">
          <mxGeometry x="612.48" y="50" width="47.52" height="30" as="geometry" />
        </mxCell>
        <mxCell id="sVlaK4R8TNGXsEOWWM8I-43" value="مبتلا بودن" style="shape=rhombus;perimeter=rhombusPerimeter;whiteSpace=wrap;html=1;align=center;" parent="1" vertex="1">
          <mxGeometry x="591.24" y="105" width="90" height="60" as="geometry" />
        </mxCell>
        <mxCell id="sVlaK4R8TNGXsEOWWM8I-45" value="" style="endArrow=none;html=1;rounded=0;entryX=0;entryY=0.5;entryDx=0;entryDy=0;exitX=1;exitY=0.5;exitDx=0;exitDy=0;" parent="1" source="sVlaK4R8TNGXsEOWWM8I-43" target="sVlaK4R8TNGXsEOWWM8I-36" edge="1">
          <mxGeometry relative="1" as="geometry">
            <mxPoint x="470" y="145" as="sourcePoint" />
            <mxPoint x="530" y="145" as="targetPoint" />
          </mxGeometry>
        </mxCell>
        <mxCell id="sVlaK4R8TNGXsEOWWM8I-123" value="&lt;div&gt;N&lt;/div&gt;" style="edgeLabel;html=1;align=center;verticalAlign=middle;resizable=0;points=[];labelBackgroundColor=none;" parent="sVlaK4R8TNGXsEOWWM8I-45" vertex="1" connectable="0">
          <mxGeometry x="0.759" y="1" relative="1" as="geometry">
            <mxPoint x="-2" y="-9" as="offset" />
          </mxGeometry>
        </mxCell>
        <mxCell id="sVlaK4R8TNGXsEOWWM8I-46" value="ویراستاری" style="shape=rhombus;perimeter=rhombusPerimeter;whiteSpace=wrap;html=1;align=center;" parent="1" vertex="1">
          <mxGeometry x="114.63" y="315" width="80" height="60" as="geometry" />
        </mxCell>
        <mxCell id="sVlaK4R8TNGXsEOWWM8I-47" value="" style="endArrow=none;html=1;rounded=0;exitX=0.5;exitY=1;exitDx=0;exitDy=0;entryX=0.5;entryY=0;entryDx=0;entryDy=0;" parent="1" source="sVlaK4R8TNGXsEOWWM8I-25" target="sVlaK4R8TNGXsEOWWM8I-46" edge="1">
          <mxGeometry relative="1" as="geometry">
            <mxPoint x="230" y="360" as="sourcePoint" />
            <mxPoint x="390" y="360" as="targetPoint" />
          </mxGeometry>
        </mxCell>
        <mxCell id="sVlaK4R8TNGXsEOWWM8I-88" value="M" style="edgeLabel;html=1;align=center;verticalAlign=middle;resizable=0;points=[];labelBackgroundColor=none;" parent="sVlaK4R8TNGXsEOWWM8I-47" vertex="1" connectable="0">
          <mxGeometry x="-0.8859" y="2" relative="1" as="geometry">
            <mxPoint x="5" y="7" as="offset" />
          </mxGeometry>
        </mxCell>
        <mxCell id="sVlaK4R8TNGXsEOWWM8I-49" value="نوع" style="endArrow=none;html=1;rounded=0;entryX=0.5;entryY=0;entryDx=0;entryDy=0;exitX=0.5;exitY=1;exitDx=0;exitDy=0;" parent="1" source="Q4Wg1zKSu5OOe2htZJlR-3" target="sVlaK4R8TNGXsEOWWM8I-50" edge="1">
          <mxGeometry relative="1" as="geometry">
            <mxPoint x="280.38" y="640" as="sourcePoint" />
            <mxPoint x="175.88" y="720" as="targetPoint" />
          </mxGeometry>
        </mxCell>
        <mxCell id="sVlaK4R8TNGXsEOWWM8I-50" value="d" style="ellipse;whiteSpace=wrap;html=1;aspect=fixed;" parent="1" vertex="1">
          <mxGeometry x="159.76" y="680" width="20" height="20" as="geometry" />
        </mxCell>
        <mxCell id="sVlaK4R8TNGXsEOWWM8I-51" value="U" style="endArrow=none;html=1;rounded=0;entryX=0;entryY=1;entryDx=0;entryDy=0;exitX=0.5;exitY=0;exitDx=0;exitDy=0;" parent="1" source="sVlaK4R8TNGXsEOWWM8I-54" target="sVlaK4R8TNGXsEOWWM8I-50" edge="1">
          <mxGeometry width="50" height="50" relative="1" as="geometry">
            <mxPoint x="107.88" y="750" as="sourcePoint" />
            <mxPoint x="178.30893218813446" y="707.0710678118655" as="targetPoint" />
          </mxGeometry>
        </mxCell>
        <mxCell id="sVlaK4R8TNGXsEOWWM8I-54" value="آزمایشگاهی" style="rounded=1;arcSize=10;whiteSpace=wrap;html=1;align=center;" parent="1" vertex="1">
          <mxGeometry x="8.38" y="760" width="92.5" height="50" as="geometry" />
        </mxCell>
        <mxCell id="sVlaK4R8TNGXsEOWWM8I-55" value="پاسخ کوتاه" style="rounded=1;arcSize=10;whiteSpace=wrap;html=1;align=center;" parent="1" vertex="1">
          <mxGeometry x="107.88" y="760" width="92.5" height="50" as="geometry" />
        </mxCell>
        <mxCell id="sVlaK4R8TNGXsEOWWM8I-56" value="چندگزینه‌ای" style="rounded=1;arcSize=10;whiteSpace=wrap;html=1;align=center;" parent="1" vertex="1">
          <mxGeometry x="207.88" y="760" width="92.5" height="50" as="geometry" />
        </mxCell>
        <mxCell id="sVlaK4R8TNGXsEOWWM8I-57" value="U" style="endArrow=none;html=1;rounded=0;entryX=0.5;entryY=1;entryDx=0;entryDy=0;exitX=0.5;exitY=0;exitDx=0;exitDy=0;" parent="1" source="sVlaK4R8TNGXsEOWWM8I-55" target="sVlaK4R8TNGXsEOWWM8I-50" edge="1">
          <mxGeometry width="50" height="50" relative="1" as="geometry">
            <mxPoint x="110.38000000000005" y="770" as="sourcePoint" />
            <mxPoint x="209.5589321881361" y="707.0710678118639" as="targetPoint" />
          </mxGeometry>
        </mxCell>
        <mxCell id="sVlaK4R8TNGXsEOWWM8I-58" value="U" style="endArrow=none;html=1;rounded=0;entryX=1;entryY=1;entryDx=0;entryDy=0;exitX=0.5;exitY=0;exitDx=0;exitDy=0;" parent="1" source="sVlaK4R8TNGXsEOWWM8I-56" target="sVlaK4R8TNGXsEOWWM8I-50" edge="1">
          <mxGeometry width="50" height="50" relative="1" as="geometry">
            <mxPoint x="120.38000000000005" y="780" as="sourcePoint" />
            <mxPoint x="219.5589321881361" y="717.0710678118639" as="targetPoint" />
          </mxGeometry>
        </mxCell>
        <mxCell id="sVlaK4R8TNGXsEOWWM8I-59" value="" style="endArrow=none;html=1;rounded=0;entryX=0.5;entryY=1;entryDx=0;entryDy=0;exitX=0.5;exitY=0;exitDx=0;exitDy=0;" parent="1" source="sVlaK4R8TNGXsEOWWM8I-60" target="sVlaK4R8TNGXsEOWWM8I-56" edge="1">
          <mxGeometry relative="1" as="geometry">
            <mxPoint x="314.38" y="850" as="sourcePoint" />
            <mxPoint x="370.38" y="820" as="targetPoint" />
          </mxGeometry>
        </mxCell>
        <mxCell id="sVlaK4R8TNGXsEOWWM8I-60" value="پاسخ" style="ellipse;shape=doubleEllipse;margin=3;whiteSpace=wrap;html=1;align=center;" parent="1" vertex="1">
          <mxGeometry x="200.38" y="850" width="60.63" height="40" as="geometry" />
        </mxCell>
        <mxCell id="sVlaK4R8TNGXsEOWWM8I-61" value="" style="endArrow=none;html=1;rounded=0;exitX=0.5;exitY=1;exitDx=0;exitDy=0;entryX=0.5;entryY=0;entryDx=0;entryDy=0;" parent="1" source="sVlaK4R8TNGXsEOWWM8I-55" target="sVlaK4R8TNGXsEOWWM8I-62" edge="1">
          <mxGeometry relative="1" as="geometry">
            <mxPoint x="140.38" y="850" as="sourcePoint" />
            <mxPoint x="206.38" y="850" as="targetPoint" />
          </mxGeometry>
        </mxCell>
        <mxCell id="sVlaK4R8TNGXsEOWWM8I-62" value="توضیحات" style="ellipse;whiteSpace=wrap;html=1;align=center;" parent="1" vertex="1">
          <mxGeometry x="92.88" y="850" width="64" height="40" as="geometry" />
        </mxCell>
        <mxCell id="sVlaK4R8TNGXsEOWWM8I-63" value="" style="endArrow=none;html=1;rounded=0;exitX=1;exitY=0.5;exitDx=0;exitDy=0;entryX=0;entryY=0.5;entryDx=0;entryDy=0;" parent="1" source="sVlaK4R8TNGXsEOWWM8I-64" target="Q4Wg1zKSu5OOe2htZJlR-3" edge="1">
          <mxGeometry relative="1" as="geometry">
            <mxPoint x="370" y="550" as="sourcePoint" />
            <mxPoint y="540" as="targetPoint" />
          </mxGeometry>
        </mxCell>
        <mxCell id="sVlaK4R8TNGXsEOWWM8I-64" value="امتیاز ویژه" style="ellipse;whiteSpace=wrap;html=1;align=center;" parent="1" vertex="1">
          <mxGeometry x="34.25" y="575" width="50" height="40" as="geometry" />
        </mxCell>
        <mxCell id="sVlaK4R8TNGXsEOWWM8I-68" value="" style="endArrow=none;html=1;rounded=0;exitX=0.5;exitY=1;exitDx=0;exitDy=0;entryX=0.5;entryY=0;entryDx=0;entryDy=0;" parent="1" source="sVlaK4R8TNGXsEOWWM8I-46" target="sVlaK4R8TNGXsEOWWM8I-38" edge="1">
          <mxGeometry relative="1" as="geometry">
            <mxPoint x="210" y="450" as="sourcePoint" />
            <mxPoint x="370" y="450" as="targetPoint" />
          </mxGeometry>
        </mxCell>
        <mxCell id="sVlaK4R8TNGXsEOWWM8I-69" value="" style="resizable=0;html=1;align=left;verticalAlign=bottom;" parent="sVlaK4R8TNGXsEOWWM8I-68" connectable="0" vertex="1">
          <mxGeometry x="-1" relative="1" as="geometry" />
        </mxCell>
        <mxCell id="sVlaK4R8TNGXsEOWWM8I-70" value="N" style="resizable=0;html=1;align=right;verticalAlign=bottom;" parent="sVlaK4R8TNGXsEOWWM8I-68" connectable="0" vertex="1">
          <mxGeometry x="1" relative="1" as="geometry">
            <mxPoint x="-9" as="offset" />
          </mxGeometry>
        </mxCell>
        <mxCell id="sVlaK4R8TNGXsEOWWM8I-90" value="پایش" style="shape=rhombus;double=1;perimeter=rhombusPerimeter;whiteSpace=wrap;html=1;align=center;labelBackgroundColor=none;" parent="1" vertex="1">
          <mxGeometry x="777.5" y="290" width="80" height="60" as="geometry" />
        </mxCell>
        <mxCell id="sVlaK4R8TNGXsEOWWM8I-91" value="" style="endArrow=none;html=1;rounded=0;exitX=1;exitY=1;exitDx=0;exitDy=0;entryX=0;entryY=0.5;entryDx=0;entryDy=0;" parent="1" source="sVlaK4R8TNGXsEOWWM8I-3" target="sVlaK4R8TNGXsEOWWM8I-90" edge="1">
          <mxGeometry relative="1" as="geometry">
            <mxPoint x="810" y="290" as="sourcePoint" />
            <mxPoint x="970" y="290" as="targetPoint" />
          </mxGeometry>
        </mxCell>
        <mxCell id="sVlaK4R8TNGXsEOWWM8I-92" value="" style="endArrow=none;html=1;rounded=0;exitX=0.5;exitY=0;exitDx=0;exitDy=0;entryX=0.5;entryY=1;entryDx=0;entryDy=0;" parent="1" source="sVlaK4R8TNGXsEOWWM8I-90" target="sVlaK4R8TNGXsEOWWM8I-36" edge="1">
          <mxGeometry relative="1" as="geometry">
            <mxPoint x="495" y="169.99999999999977" as="sourcePoint" />
            <mxPoint x="750" y="330" as="targetPoint" />
          </mxGeometry>
        </mxCell>
        <mxCell id="sVlaK4R8TNGXsEOWWM8I-93" value="" style="endArrow=none;html=1;rounded=0;exitX=1;exitY=0.5;exitDx=0;exitDy=0;entryX=0.5;entryY=1;entryDx=0;entryDy=0;" parent="1" source="sVlaK4R8TNGXsEOWWM8I-37" target="sVlaK4R8TNGXsEOWWM8I-90" edge="1">
          <mxGeometry relative="1" as="geometry">
            <mxPoint x="505" y="179.99999999999977" as="sourcePoint" />
            <mxPoint x="760" y="340" as="targetPoint" />
          </mxGeometry>
        </mxCell>
        <mxCell id="sVlaK4R8TNGXsEOWWM8I-94" value="" style="endArrow=none;html=1;rounded=0;exitX=1;exitY=0.5;exitDx=0;exitDy=0;entryX=0;entryY=0.5;entryDx=0;entryDy=0;" parent="1" source="sVlaK4R8TNGXsEOWWM8I-90" target="sVlaK4R8TNGXsEOWWM8I-39" edge="1">
          <mxGeometry relative="1" as="geometry">
            <mxPoint x="515" y="189.99999999999977" as="sourcePoint" />
            <mxPoint x="770" y="350" as="targetPoint" />
          </mxGeometry>
        </mxCell>
        <mxCell id="sVlaK4R8TNGXsEOWWM8I-95" value="" style="endArrow=none;html=1;rounded=0;exitX=0.5;exitY=1;exitDx=0;exitDy=0;entryX=0.5;entryY=0;entryDx=0;entryDy=0;" parent="1" source="sVlaK4R8TNGXsEOWWM8I-39" target="sVlaK4R8TNGXsEOWWM8I-96" edge="1">
          <mxGeometry relative="1" as="geometry">
            <mxPoint x="1235.2699999999998" y="374.14999999999986" as="sourcePoint" />
            <mxPoint x="1190" y="380" as="targetPoint" />
          </mxGeometry>
        </mxCell>
        <mxCell id="sVlaK4R8TNGXsEOWWM8I-96" value="نام کارشناس" style="ellipse;whiteSpace=wrap;html=1;align=center;" parent="1" vertex="1">
          <mxGeometry x="890" y="390" width="60" height="50" as="geometry" />
        </mxCell>
        <mxCell id="sVlaK4R8TNGXsEOWWM8I-103" value="" style="endArrow=none;html=1;rounded=0;entryX=0.25;entryY=0;entryDx=0;entryDy=0;exitX=0.5;exitY=1;exitDx=0;exitDy=0;" parent="1" source="sVlaK4R8TNGXsEOWWM8I-104" target="sVlaK4R8TNGXsEOWWM8I-39" edge="1">
          <mxGeometry relative="1" as="geometry">
            <mxPoint x="855" y="230" as="sourcePoint" />
            <mxPoint x="892.5" y="289.9999999999998" as="targetPoint" />
          </mxGeometry>
        </mxCell>
        <mxCell id="sVlaK4R8TNGXsEOWWM8I-104" value="&lt;div&gt;تاریخ&lt;/div&gt;&lt;div&gt;تشخیص&lt;br&gt;&lt;/div&gt;" style="ellipse;whiteSpace=wrap;html=1;align=center;" parent="1" vertex="1">
          <mxGeometry x="850" y="205" width="60" height="50" as="geometry" />
        </mxCell>
        <mxCell id="sVlaK4R8TNGXsEOWWM8I-105" value="تاریخ آغاز درمان" style="ellipse;whiteSpace=wrap;html=1;align=center;" parent="1" vertex="1">
          <mxGeometry x="920" y="205" width="60" height="50" as="geometry" />
        </mxCell>
        <mxCell id="sVlaK4R8TNGXsEOWWM8I-106" value="" style="endArrow=none;html=1;rounded=0;exitX=0.5;exitY=1;exitDx=0;exitDy=0;entryX=0.75;entryY=0;entryDx=0;entryDy=0;" parent="1" source="sVlaK4R8TNGXsEOWWM8I-105" target="sVlaK4R8TNGXsEOWWM8I-39" edge="1">
          <mxGeometry relative="1" as="geometry">
            <mxPoint x="1060" y="300" as="sourcePoint" />
            <mxPoint x="1133.75" y="369.9999999999998" as="targetPoint" />
          </mxGeometry>
        </mxCell>
        <mxCell id="sVlaK4R8TNGXsEOWWM8I-111" value="اثربخشی" style="shape=rhombus;perimeter=rhombusPerimeter;whiteSpace=wrap;html=1;align=center;" parent="1" vertex="1">
          <mxGeometry x="510" y="300" width="120" height="60" as="geometry" />
        </mxCell>
        <mxCell id="sVlaK4R8TNGXsEOWWM8I-112" value="" style="endArrow=none;html=1;rounded=0;exitX=0.25;exitY=1;exitDx=0;exitDy=0;entryX=0.5;entryY=0;entryDx=0;entryDy=0;" parent="1" source="sVlaK4R8TNGXsEOWWM8I-36" target="sVlaK4R8TNGXsEOWWM8I-111" edge="1">
          <mxGeometry relative="1" as="geometry">
            <mxPoint x="556.25" y="290" as="sourcePoint" />
            <mxPoint x="740" y="340" as="targetPoint" />
          </mxGeometry>
        </mxCell>
        <mxCell id="sVlaK4R8TNGXsEOWWM8I-113" value="N" style="edgeLabel;html=1;align=center;verticalAlign=middle;resizable=0;points=[];labelBackgroundColor=none;" parent="sVlaK4R8TNGXsEOWWM8I-112" vertex="1" connectable="0">
          <mxGeometry x="-0.8859" y="2" relative="1" as="geometry">
            <mxPoint x="2" y="6" as="offset" />
          </mxGeometry>
        </mxCell>
        <mxCell id="sVlaK4R8TNGXsEOWWM8I-114" value="" style="endArrow=none;html=1;rounded=0;exitX=0.5;exitY=1;exitDx=0;exitDy=0;entryX=0.75;entryY=0;entryDx=0;entryDy=0;" parent="1" source="sVlaK4R8TNGXsEOWWM8I-111" target="sVlaK4R8TNGXsEOWWM8I-37" edge="1">
          <mxGeometry relative="1" as="geometry">
            <mxPoint x="560" y="430" as="sourcePoint" />
            <mxPoint x="519.375" y="460" as="targetPoint" />
          </mxGeometry>
        </mxCell>
        <mxCell id="sVlaK4R8TNGXsEOWWM8I-115" value="" style="resizable=0;html=1;align=left;verticalAlign=bottom;" parent="sVlaK4R8TNGXsEOWWM8I-114" connectable="0" vertex="1">
          <mxGeometry x="-1" relative="1" as="geometry" />
        </mxCell>
        <mxCell id="sVlaK4R8TNGXsEOWWM8I-116" value="M" style="resizable=0;html=1;align=right;verticalAlign=bottom;" parent="sVlaK4R8TNGXsEOWWM8I-114" connectable="0" vertex="1">
          <mxGeometry x="1" relative="1" as="geometry" />
        </mxCell>
        <mxCell id="sVlaK4R8TNGXsEOWWM8I-117" value="" style="endArrow=none;html=1;rounded=0;exitX=1;exitY=0.5;exitDx=0;exitDy=0;entryX=0;entryY=0.5;entryDx=0;entryDy=0;" parent="1" source="sVlaK4R8TNGXsEOWWM8I-111" target="Q4Wg1zKSu5OOe2htZJlR-1" edge="1">
          <mxGeometry relative="1" as="geometry">
            <mxPoint x="630" y="330" as="sourcePoint" />
            <mxPoint x="655" y="330" as="targetPoint" />
          </mxGeometry>
        </mxCell>
        <mxCell id="sVlaK4R8TNGXsEOWWM8I-118" value="" style="resizable=0;html=1;align=left;verticalAlign=bottom;" parent="sVlaK4R8TNGXsEOWWM8I-117" connectable="0" vertex="1">
          <mxGeometry x="-1" relative="1" as="geometry" />
        </mxCell>
        <mxCell id="sVlaK4R8TNGXsEOWWM8I-125" value="" style="endArrow=none;html=1;rounded=0;entryX=1;entryY=0.5;entryDx=0;entryDy=0;exitX=0;exitY=0.5;exitDx=0;exitDy=0;" parent="1" source="sVlaK4R8TNGXsEOWWM8I-43" target="sVlaK4R8TNGXsEOWWM8I-3" edge="1">
          <mxGeometry relative="1" as="geometry">
            <mxPoint x="691.24" y="145" as="sourcePoint" />
            <mxPoint x="760" y="145" as="targetPoint" />
          </mxGeometry>
        </mxCell>
        <mxCell id="sVlaK4R8TNGXsEOWWM8I-126" value="&lt;div&gt;M&lt;/div&gt;" style="edgeLabel;html=1;align=center;verticalAlign=middle;resizable=0;points=[];labelBackgroundColor=none;" parent="sVlaK4R8TNGXsEOWWM8I-125" vertex="1" connectable="0">
          <mxGeometry x="0.759" y="1" relative="1" as="geometry">
            <mxPoint x="-2" y="-9" as="offset" />
          </mxGeometry>
        </mxCell>
        <mxCell id="sVlaK4R8TNGXsEOWWM8I-127" value="" style="endArrow=none;html=1;rounded=0;exitX=0.25;exitY=0;exitDx=0;exitDy=0;entryX=0.5;entryY=1;entryDx=0;entryDy=0;" parent="1" source="sVlaK4R8TNGXsEOWWM8I-36" target="sVlaK4R8TNGXsEOWWM8I-128" edge="1">
          <mxGeometry relative="1" as="geometry">
            <mxPoint x="775.2700000000001" y="74.14999999999986" as="sourcePoint" />
            <mxPoint x="730" y="80" as="targetPoint" />
          </mxGeometry>
        </mxCell>
        <mxCell id="sVlaK4R8TNGXsEOWWM8I-128" value="&lt;div&gt;نام&lt;/div&gt;" style="ellipse;whiteSpace=wrap;html=1;align=center;" parent="1" vertex="1">
          <mxGeometry x="740" y="30" width="40" height="40" as="geometry" />
        </mxCell>
        <mxCell id="sVlaK4R8TNGXsEOWWM8I-130" value="شناسه" style="ellipse;whiteSpace=wrap;html=1;align=center;fontStyle=4;labelBackgroundColor=none;" parent="1" vertex="1">
          <mxGeometry x="790" y="30" width="55" height="40" as="geometry" />
        </mxCell>
        <mxCell id="sVlaK4R8TNGXsEOWWM8I-131" value="" style="endArrow=none;html=1;rounded=0;exitX=0.5;exitY=0;exitDx=0;exitDy=0;entryX=0.5;entryY=1;entryDx=0;entryDy=0;" parent="1" source="sVlaK4R8TNGXsEOWWM8I-36" target="sVlaK4R8TNGXsEOWWM8I-130" edge="1">
          <mxGeometry relative="1" as="geometry">
            <mxPoint x="793.75" y="120" as="sourcePoint" />
            <mxPoint x="750" y="80" as="targetPoint" />
          </mxGeometry>
        </mxCell>
        <mxCell id="sVlaK4R8TNGXsEOWWM8I-133" value="" style="endArrow=none;html=1;rounded=0;entryX=0.612;entryY=0.006;entryDx=0;entryDy=0;exitX=0.5;exitY=1;exitDx=0;exitDy=0;entryPerimeter=0;" parent="1" source="sVlaK4R8TNGXsEOWWM8I-135" target="sVlaK4R8TNGXsEOWWM8I-3" edge="1">
          <mxGeometry relative="1" as="geometry">
            <mxPoint x="425.5" y="10" as="sourcePoint" />
            <mxPoint x="440.5" y="50" as="targetPoint" />
          </mxGeometry>
        </mxCell>
        <mxCell id="sVlaK4R8TNGXsEOWWM8I-135" value="سن" style="ellipse;whiteSpace=wrap;html=1;align=center;dashed=1;labelBackgroundColor=none;" parent="1" vertex="1">
          <mxGeometry x="405" y="-30" width="40" height="40" as="geometry" />
        </mxCell>
        <mxCell id="sVlaK4R8TNGXsEOWWM8I-143" value="" style="endArrow=none;html=1;rounded=0;entryX=0;entryY=0;entryDx=0;entryDy=0;exitX=0.5;exitY=1;exitDx=0;exitDy=0;" parent="1" source="sVlaK4R8TNGXsEOWWM8I-146" target="sVlaK4R8TNGXsEOWWM8I-16" edge="1">
          <mxGeometry relative="1" as="geometry">
            <mxPoint x="246.25" y="-86" as="sourcePoint" />
            <mxPoint x="299.65332" y="-5.160000000000082" as="targetPoint" />
          </mxGeometry>
        </mxCell>
        <mxCell id="sVlaK4R8TNGXsEOWWM8I-144" value="" style="endArrow=none;html=1;rounded=0;entryX=0.5;entryY=0;entryDx=0;entryDy=0;exitX=0.5;exitY=1;exitDx=0;exitDy=0;" parent="1" source="sVlaK4R8TNGXsEOWWM8I-145" target="sVlaK4R8TNGXsEOWWM8I-16" edge="1">
          <mxGeometry relative="1" as="geometry">
            <mxPoint x="346.25" y="-86" as="sourcePoint" />
            <mxPoint x="343.73248016027003" y="-0.17617304877626339" as="targetPoint" />
          </mxGeometry>
        </mxCell>
        <mxCell id="sVlaK4R8TNGXsEOWWM8I-145" value="ماه" style="ellipse;whiteSpace=wrap;html=1;align=center;" parent="1" vertex="1">
          <mxGeometry x="370" y="-26" width="26.25" height="40" as="geometry" />
        </mxCell>
        <mxCell id="sVlaK4R8TNGXsEOWWM8I-146" value="سال" style="ellipse;whiteSpace=wrap;html=1;align=center;" parent="1" vertex="1">
          <mxGeometry x="330" y="-26" width="30" height="40" as="geometry" />
        </mxCell>
        <mxCell id="sVlaK4R8TNGXsEOWWM8I-148" value="" style="endArrow=none;html=1;rounded=0;exitX=1;exitY=0.5;exitDx=0;exitDy=0;entryX=0;entryY=0;entryDx=0;entryDy=0;" parent="1" source="sVlaK4R8TNGXsEOWWM8I-150" target="sVlaK4R8TNGXsEOWWM8I-3" edge="1">
          <mxGeometry relative="1" as="geometry">
            <mxPoint x="280" y="100" as="sourcePoint" />
            <mxPoint x="310" y="110" as="targetPoint" />
          </mxGeometry>
        </mxCell>
        <mxCell id="sVlaK4R8TNGXsEOWWM8I-150" value="کد ملی" style="ellipse;whiteSpace=wrap;html=1;align=center;fontStyle=4;labelBackgroundColor=none;" parent="1" vertex="1">
          <mxGeometry x="237.5" y="10" width="50" height="40" as="geometry" />
        </mxCell>
        <mxCell id="sVlaK4R8TNGXsEOWWM8I-151" value="" style="endArrow=none;html=1;rounded=0;entryX=0;entryY=0.25;entryDx=0;entryDy=0;exitX=1;exitY=0.5;exitDx=0;exitDy=0;" parent="1" source="sVlaK4R8TNGXsEOWWM8I-152" target="sVlaK4R8TNGXsEOWWM8I-3" edge="1">
          <mxGeometry relative="1" as="geometry">
            <mxPoint x="290" y="80" as="sourcePoint" />
            <mxPoint x="420" y="120" as="targetPoint" />
          </mxGeometry>
        </mxCell>
        <mxCell id="sVlaK4R8TNGXsEOWWM8I-152" value="نام" style="ellipse;whiteSpace=wrap;html=1;align=center;" parent="1" vertex="1">
          <mxGeometry x="249.02" y="60" width="38.48" height="35" as="geometry" />
        </mxCell>
        <mxCell id="sVlaK4R8TNGXsEOWWM8I-153" value="&lt;div&gt;تخصص&lt;/div&gt;داشتن" style="shape=rhombus;double=1;perimeter=rhombusPerimeter;whiteSpace=wrap;html=1;align=center;labelBackgroundColor=none;" parent="1" vertex="1">
          <mxGeometry x="110" y="130" width="90" height="60" as="geometry" />
        </mxCell>
        <mxCell id="sVlaK4R8TNGXsEOWWM8I-155" value="" style="endArrow=none;html=1;rounded=0;exitX=0.5;exitY=1;exitDx=0;exitDy=0;entryX=0.5;entryY=0;entryDx=0;entryDy=0;" parent="1" source="sVlaK4R8TNGXsEOWWM8I-153" target="sVlaK4R8TNGXsEOWWM8I-25" edge="1">
          <mxGeometry relative="1" as="geometry">
            <mxPoint x="226.5" y="410" as="sourcePoint" />
            <mxPoint x="171" y="227.14285714285714" as="targetPoint" />
          </mxGeometry>
        </mxCell>
        <mxCell id="sVlaK4R8TNGXsEOWWM8I-156" value="" style="resizable=0;html=1;align=left;verticalAlign=bottom;" parent="sVlaK4R8TNGXsEOWWM8I-155" connectable="0" vertex="1">
          <mxGeometry x="-1" relative="1" as="geometry" />
        </mxCell>
        <mxCell id="sVlaK4R8TNGXsEOWWM8I-157" value="M" style="resizable=0;html=1;align=right;verticalAlign=bottom;" parent="sVlaK4R8TNGXsEOWWM8I-155" connectable="0" vertex="1">
          <mxGeometry x="1" relative="1" as="geometry">
            <mxPoint x="14" as="offset" />
          </mxGeometry>
        </mxCell>
        <mxCell id="sVlaK4R8TNGXsEOWWM8I-158" value="تخصص" style="shape=ext;margin=3;double=1;whiteSpace=wrap;html=1;align=center;labelBackgroundColor=none;" parent="1" vertex="1">
          <mxGeometry x="105" y="55" width="100" height="40" as="geometry" />
        </mxCell>
        <mxCell id="sVlaK4R8TNGXsEOWWM8I-159" value="" style="endArrow=none;html=1;rounded=0;exitX=0.5;exitY=1;exitDx=0;exitDy=0;entryX=0.5;entryY=0;entryDx=0;entryDy=0;" parent="1" source="sVlaK4R8TNGXsEOWWM8I-158" target="sVlaK4R8TNGXsEOWWM8I-153" edge="1">
          <mxGeometry relative="1" as="geometry">
            <mxPoint x="150" y="100" as="sourcePoint" />
            <mxPoint x="310" y="100" as="targetPoint" />
          </mxGeometry>
        </mxCell>
        <mxCell id="sVlaK4R8TNGXsEOWWM8I-160" value="&lt;div&gt;N&lt;/div&gt;" style="edgeLabel;html=1;align=center;verticalAlign=middle;resizable=0;points=[];labelBackgroundColor=none;" parent="sVlaK4R8TNGXsEOWWM8I-159" vertex="1" connectable="0">
          <mxGeometry x="-0.5837" y="3" relative="1" as="geometry">
            <mxPoint x="4" y="2" as="offset" />
          </mxGeometry>
        </mxCell>
        <mxCell id="sVlaK4R8TNGXsEOWWM8I-162" value="" style="endArrow=none;html=1;rounded=0;exitX=0.75;exitY=0;exitDx=0;exitDy=0;entryX=0.5;entryY=1;entryDx=0;entryDy=0;" parent="1" source="sVlaK4R8TNGXsEOWWM8I-36" target="sVlaK4R8TNGXsEOWWM8I-163" edge="1">
          <mxGeometry relative="1" as="geometry">
            <mxPoint x="912.5" y="115" as="sourcePoint" />
            <mxPoint x="912.5" y="75" as="targetPoint" />
          </mxGeometry>
        </mxCell>
        <mxCell id="sVlaK4R8TNGXsEOWWM8I-163" value="دسته‌بندی" style="ellipse;shape=doubleEllipse;margin=3;whiteSpace=wrap;html=1;align=center;labelBackgroundColor=none;" parent="1" vertex="1">
          <mxGeometry x="852" y="30" width="80" height="40" as="geometry" />
        </mxCell>
        <mxCell id="Q4Wg1zKSu5OOe2htZJlR-1" value="نوع" style="ellipse;margin=3;whiteSpace=wrap;html=1;align=center;labelBackgroundColor=none;" parent="1" vertex="1">
          <mxGeometry x="650" y="310" width="80" height="40" as="geometry" />
        </mxCell>
        <mxCell id="Q4Wg1zKSu5OOe2htZJlR-3" value="پرسش" style="rounded=1;arcSize=10;whiteSpace=wrap;html=1;align=center;" parent="1" vertex="1">
          <mxGeometry x="108.13" y="570" width="93.75" height="50" as="geometry" />
        </mxCell>
        <mxCell id="Q4Wg1zKSu5OOe2htZJlR-4" value="دربرداشتن" style="shape=rhombus;perimeter=rhombusPerimeter;whiteSpace=wrap;html=1;align=center;" parent="1" vertex="1">
          <mxGeometry x="114.13" y="487" width="80" height="60" as="geometry" />
        </mxCell>
        <mxCell id="Q4Wg1zKSu5OOe2htZJlR-6" value="" style="endArrow=none;html=1;rounded=0;exitX=0.5;exitY=1;exitDx=0;exitDy=0;entryX=0.5;entryY=0;entryDx=0;entryDy=0;" parent="1" source="Q4Wg1zKSu5OOe2htZJlR-4" target="Q4Wg1zKSu5OOe2htZJlR-3" edge="1">
          <mxGeometry relative="1" as="geometry">
            <mxPoint x="164.62999999999988" y="492" as="sourcePoint" />
            <mxPoint x="165.005" y="527" as="targetPoint" />
          </mxGeometry>
        </mxCell>
        <mxCell id="Q4Wg1zKSu5OOe2htZJlR-7" value="" style="resizable=0;html=1;align=left;verticalAlign=bottom;" parent="Q4Wg1zKSu5OOe2htZJlR-6" connectable="0" vertex="1">
          <mxGeometry x="-1" relative="1" as="geometry" />
        </mxCell>
        <mxCell id="Q4Wg1zKSu5OOe2htZJlR-8" value="N" style="resizable=0;html=1;align=right;verticalAlign=bottom;" parent="Q4Wg1zKSu5OOe2htZJlR-6" connectable="0" vertex="1">
          <mxGeometry x="1" relative="1" as="geometry">
            <mxPoint x="-9" as="offset" />
          </mxGeometry>
        </mxCell>
        <mxCell id="Q4Wg1zKSu5OOe2htZJlR-9" value="" style="endArrow=none;html=1;rounded=0;exitX=0.5;exitY=0;exitDx=0;exitDy=0;entryX=0.5;entryY=1;entryDx=0;entryDy=0;" parent="1" source="Q4Wg1zKSu5OOe2htZJlR-4" target="sVlaK4R8TNGXsEOWWM8I-38" edge="1">
          <mxGeometry relative="1" as="geometry">
            <mxPoint x="174.62999999999988" y="395" as="sourcePoint" />
            <mxPoint x="175.005" y="430" as="targetPoint" />
          </mxGeometry>
        </mxCell>
        <mxCell id="Q4Wg1zKSu5OOe2htZJlR-10" value="" style="resizable=0;html=1;align=left;verticalAlign=bottom;" parent="Q4Wg1zKSu5OOe2htZJlR-9" connectable="0" vertex="1">
          <mxGeometry x="-1" relative="1" as="geometry" />
        </mxCell>
        <mxCell id="Q4Wg1zKSu5OOe2htZJlR-11" value="1" style="resizable=0;html=1;align=right;verticalAlign=bottom;" parent="Q4Wg1zKSu5OOe2htZJlR-9" connectable="0" vertex="1">
          <mxGeometry x="1" relative="1" as="geometry">
            <mxPoint x="-9" y="20" as="offset" />
          </mxGeometry>
        </mxCell>
      </root>
    </mxGraphModel>
  </diagram>
</mxfile>
